<svg width="1600" height="1600" viewBox="0 0 1600 1600" fill="none" xmlns="http://www.w3.org/2000/svg">
<g id="noun-twenty-two-3644128-FFFFFF 1">
<g id="Group">
<path id="fill3" fill-rule="evenodd" clip-rule="evenodd" d="M1167.92 182.147L994.213 483.027C1018.2 497.443 1040.39 514.537 1060.37 533.876L1306 288.249L1305.71 287.979C1298.71 281.104 1291.58 274.385 1284.31 267.796C1270.04 254.884 1255.23 242.53 1239.95 230.806C1224.79 219.145 1209.16 208.118 1193.11 197.713C1184.84 192.359 1176.46 187.177 1167.98 182.172L1167.92 182.141L1167.92 182.147Z" fill="white"/>
<path id="fill4" fill-rule="evenodd" clip-rule="evenodd" d="M1314.61 296.653L1068.96 542.32C1088.38 562.456 1105.4 584.695 1119.7 608.555L1420.51 434.888L1420.31 434.555C1415.33 426.112 1410.18 417.763 1404.86 409.524C1394.4 393.352 1383.31 377.587 1371.59 362.3C1359.96 347.123 1347.72 332.425 1334.9 318.227C1328.32 310.909 1321.55 303.732 1314.66 296.696L1314.61 296.649L1314.61 296.653Z" fill="white"/>
<path id="fill5" fill-rule="evenodd" clip-rule="evenodd" d="M1426.67 445.267L1125.8 618.973C1139.35 643.447 1150.02 669.348 1157.66 696.088L1493.18 606.187L1493.07 605.806C1490.44 596.364 1487.64 586.973 1484.63 577.64C1478.72 559.312 1472.08 541.218 1464.72 523.416C1457.41 505.754 1449.4 488.374 1440.69 471.342C1436.2 462.582 1431.54 453.9 1426.7 445.316L1426.66 445.269L1426.67 445.267Z" fill="white"/>
<path id="fill6" fill-rule="evenodd" clip-rule="evenodd" d="M1496.4 617.773L1160.83 707.691C1167.58 734.841 1171.19 762.612 1171.64 790.431H1518.99V790.035C1518.9 780.227 1518.61 770.425 1518.14 760.633C1517.17 741.404 1515.43 722.201 1512.92 703.112C1510.43 684.148 1507.19 665.284 1503.19 646.591C1501.14 636.961 1498.87 627.377 1496.41 617.82L1496.4 617.773L1496.4 617.773Z" fill="white"/>
<path id="fill7" fill-rule="evenodd" clip-rule="evenodd" d="M1519.07 802.467H1171.64C1171.15 830.44 1167.44 858.212 1160.68 885.191L1496.18 975.092L1496.29 974.712C1498.73 965.207 1501 955.67 1503.06 946.086C1507.12 927.269 1510.41 908.274 1512.93 889.169C1515.43 870.221 1517.17 851.164 1518.16 832.076C1518.66 822.237 1518.96 812.382 1519.06 802.529L1519.07 802.467Z" fill="white"/>
<path id="fill8" fill-rule="evenodd" clip-rule="evenodd" d="M1493.33 986.76L1157.75 896.843C1150.03 923.744 1139.26 949.592 1125.75 973.911L1426.56 1147.58L1426.75 1147.24C1431.58 1138.71 1436.24 1130.07 1440.71 1121.34C1449.5 1104.22 1457.59 1086.71 1464.96 1068.92C1472.29 1051.26 1478.92 1033.31 1484.79 1015.12C1487.84 1005.74 1490.67 996.307 1493.31 986.817L1493.33 986.76Z" fill="white"/>
<path id="fill9" fill-rule="evenodd" clip-rule="evenodd" d="M1420.67 1158.07L1119.79 984.36C1105.37 1008.34 1088.28 1030.52 1068.94 1050.52L1314.55 1296.14L1314.84 1295.86C1321.7 1288.86 1328.43 1281.73 1335 1274.45C1347.93 1260.18 1360.27 1245.37 1372.01 1230.1C1383.66 1214.94 1394.7 1199.3 1405.09 1183.26C1410.44 1174.99 1415.62 1166.61 1420.65 1158.13L1420.68 1158.07L1420.67 1158.07Z" fill="white"/>
<path id="fill10" fill-rule="evenodd" clip-rule="evenodd" d="M1306.11 1304.76L1060.45 1059.11C1040.32 1078.53 1018.06 1095.54 994.203 1109.85L1167.87 1410.66L1168.22 1410.45C1176.66 1405.48 1185.01 1400.33 1193.23 1395C1209.42 1384.55 1225.17 1373.46 1240.46 1361.74C1255.64 1350.11 1270.35 1337.86 1284.55 1325.05C1291.85 1318.46 1299.02 1311.7 1306.06 1304.81L1306.11 1304.76Z" fill="white"/>
<path id="fill11" fill-rule="evenodd" clip-rule="evenodd" d="M1157.39 1416.8L983.68 1115.92C959.207 1129.48 933.305 1140.16 906.565 1147.79L996.467 1483.31L996.847 1483.21C1006.29 1480.58 1015.68 1477.77 1025.01 1474.76C1043.34 1468.85 1061.43 1462.22 1079.24 1454.85C1096.9 1447.53 1114.28 1439.52 1131.31 1430.82C1140.07 1426.34 1148.75 1421.68 1157.34 1416.83L1157.38 1416.8L1157.39 1416.8Z" fill="white"/>
<path id="fill12" fill-rule="evenodd" clip-rule="evenodd" d="M984.867 1486.53L894.949 1150.95C867.799 1157.71 840.028 1161.32 812.209 1161.78V1509.13H812.605C822.413 1509.03 832.215 1508.75 842.007 1508.26C861.236 1507.31 880.439 1505.56 899.528 1503.06C918.492 1500.57 937.356 1497.32 956.049 1493.33C965.679 1491.27 975.263 1489.01 984.799 1486.55L984.861 1486.53L984.867 1486.53Z" fill="white"/>
<path id="fill13" fill-rule="evenodd" clip-rule="evenodd" d="M800.173 1509.33V1161.91C772.2 1161.4 744.444 1157.71 717.449 1150.94L627.548 1486.45L627.944 1486.56C637.434 1489 646.971 1491.26 656.553 1493.32C675.371 1497.38 694.365 1500.67 713.471 1503.19C732.419 1505.7 751.476 1507.44 770.58 1508.42C780.418 1508.93 790.257 1509.22 800.111 1509.32L800.173 1509.33Z" fill="white"/>
<path id="fill14" fill-rule="evenodd" clip-rule="evenodd" d="M615.893 1483.47L705.811 1147.88C678.909 1140.17 653.061 1129.39 628.743 1115.88L455.076 1416.69L455.425 1416.88C463.946 1421.71 472.581 1426.37 481.31 1430.84C498.45 1439.62 515.941 1447.72 533.732 1455.09C551.393 1462.43 569.341 1469.05 587.544 1474.93C596.908 1477.97 606.346 1480.8 615.836 1483.45L615.893 1483.47Z" fill="white"/>
<path id="fill15" fill-rule="evenodd" clip-rule="evenodd" d="M444.573 1410.8L618.28 1109.93C594.296 1095.5 572.119 1078.42 552.124 1059.06L306.497 1304.69L306.784 1304.96C313.784 1311.84 320.914 1318.57 328.185 1325.14C342.456 1338.07 357.268 1350.41 372.54 1362.15C387.701 1373.8 403.337 1384.84 419.384 1395.23C427.655 1400.58 436.034 1405.76 444.509 1410.77L444.572 1410.8L444.573 1410.8Z" fill="white"/>
<path id="fill16" fill-rule="evenodd" clip-rule="evenodd" d="M297.88 1296.25L543.533 1050.59C524.112 1030.47 507.096 1008.21 492.793 984.352L191.98 1158.02L192.188 1158.37C197.162 1166.81 202.313 1175.14 207.636 1183.38C218.089 1199.56 229.183 1215.32 240.902 1230.61C252.532 1245.79 264.776 1260.5 277.59 1274.68C284.178 1282 290.944 1289.18 297.835 1296.21L297.882 1296.26L297.88 1296.25Z" fill="white"/>
<path id="fill17" fill-rule="evenodd" clip-rule="evenodd" d="M185.867 1147.67L486.747 973.947C473.184 949.473 462.507 923.572 454.872 896.832L119.352 986.733L119.461 987.114C122.092 996.556 124.894 1005.95 127.904 1015.28C133.815 1033.61 140.451 1051.72 147.816 1069.5C155.118 1087.17 163.133 1104.55 171.847 1121.58C176.331 1130.35 180.987 1139.02 185.836 1147.6L185.867 1147.67L185.867 1147.67Z" fill="white"/>
<path id="fill18" fill-rule="evenodd" clip-rule="evenodd" d="M116.088 975.147L451.661 885.229C444.911 858.079 441.302 830.292 440.844 802.475H93.4969V802.886C93.5907 812.678 93.8772 822.479 94.3667 832.271C95.3146 851.501 97.0594 870.703 99.5646 889.807C102.054 908.755 105.299 927.619 109.294 946.313C111.351 955.943 113.617 965.526 116.075 975.083L116.091 975.146L116.088 975.147Z" fill="white"/>
<path id="fill19" fill-rule="evenodd" clip-rule="evenodd" d="M93.5627 790.333H440.989C441.495 762.36 445.187 734.588 451.953 707.609L116.446 617.708L116.337 618.088C113.899 627.578 111.634 637.13 109.571 646.698C105.514 665.531 102.222 684.526 99.7016 703.615C97.1964 722.579 95.4568 741.636 94.4724 760.724C93.9672 770.563 93.6807 780.418 93.5713 790.271L93.5627 790.333Z" fill="white"/>
<path id="fill20" fill-rule="evenodd" clip-rule="evenodd" d="M119.38 606.04L454.967 695.972C462.68 669.071 473.456 643.223 486.967 618.904L186.153 445.211L185.966 445.56C181.133 454.096 176.492 462.732 172.007 471.445C163.231 488.585 155.122 506.09 147.753 523.882C140.419 541.544 133.81 559.492 127.919 577.68C124.878 587.06 122.044 596.482 119.398 605.972L119.38 606.04Z" fill="white"/>
<path id="fill21" fill-rule="evenodd" clip-rule="evenodd" d="M192.067 434.72L492.947 608.44C507.363 584.456 524.457 562.263 543.796 542.284L298.183 296.657L297.896 296.944C291.037 303.944 284.303 311.074 277.73 318.345C264.803 332.616 252.464 347.428 240.724 362.7C229.078 377.861 218.036 393.497 207.646 409.544C202.291 417.815 197.109 426.194 192.088 434.669L192.057 434.716L192.067 434.72Z" fill="white"/>
<path id="fill22" fill-rule="evenodd" clip-rule="evenodd" d="M306.587 288.053L552.24 533.707C572.376 514.285 594.631 497.269 618.491 482.967L444.824 182.153L444.475 182.362C436.032 187.336 427.699 192.487 419.459 197.81C403.271 208.247 387.522 219.356 372.235 231.075C357.058 242.705 342.344 254.95 328.147 267.763C320.845 274.352 313.668 281.118 306.636 288.008L306.587 288.053Z" fill="white"/>
<path id="Vector" fill-rule="evenodd" clip-rule="evenodd" d="M455.173 176.013L628.893 476.893C653.367 463.331 679.268 452.669 706.008 445.019L616.107 109.512L615.726 109.621C606.284 112.252 596.893 115.054 587.56 118.064C569.232 123.975 551.138 130.611 533.336 137.976C515.674 145.278 498.294 153.293 481.262 161.992C472.486 166.476 463.82 171.148 455.236 175.981L455.173 176.013L455.173 176.013ZM611.88 116.956C604.354 119.112 596.864 121.393 589.416 123.784C571.228 129.643 553.28 136.237 535.635 143.539C518.113 150.778 500.895 158.732 484.004 167.367C477.098 170.898 470.239 174.544 463.441 178.299L631.175 468.819C652.753 457.303 675.388 447.97 698.675 440.923L611.877 116.963L611.88 116.956Z" fill="white"/>
<path id="Vector_2" fill-rule="evenodd" clip-rule="evenodd" d="M627.693 106.235L717.625 441.821C744.761 435.056 772.547 431.462 800.365 431.004V83.6569H799.954C790.162 83.735 780.361 84.0215 770.569 84.5111C751.339 85.4798 732.137 87.2037 713.033 89.7247C694.085 92.2143 675.221 95.4435 656.527 99.4539C646.897 101.511 637.314 103.777 627.757 106.219L627.694 106.235L627.693 106.235ZM794.347 89.7453C786.519 89.8859 778.696 90.1412 770.868 90.537C751.795 91.4849 732.753 93.1985 713.821 95.6881C695.019 98.1569 676.327 101.376 657.775 105.334C650.186 106.964 642.629 108.709 635.087 110.579L721.915 434.605C745.743 429.074 770.008 425.923 794.341 425.131V89.7447L794.347 89.7453Z" fill="white"/>
<path id="fill1" fill-rule="evenodd" clip-rule="evenodd" d="M812.4 83.5306V430.957C840.373 431.447 868.129 435.155 895.124 441.921L985.025 106.401L984.63 106.307C975.14 103.87 965.603 101.604 956.02 99.5416C937.187 95.4842 918.192 92.1926 899.103 89.6718C880.139 87.1666 861.098 85.427 841.994 84.4426C832.155 83.9374 822.316 83.6353 812.463 83.5416L812.4 83.5306Z" fill="white"/>
<path id="fill2" fill-rule="evenodd" clip-rule="evenodd" d="M996.693 109.355L906.776 444.941C933.677 452.655 959.525 463.431 983.844 476.941L1157.51 176.128L1157.16 175.92C1148.63 171.102 1140.01 166.446 1131.28 161.977C1114.14 153.185 1096.65 145.092 1078.86 137.706C1061.19 130.389 1043.25 123.764 1025.04 117.889C1015.68 114.847 1006.24 112.014 996.751 109.368L996.689 109.353L996.693 109.355Z" fill="white"/>
</g>
</g>
</svg>
