<svg xmlns="http://www.w3.org/2000/svg" xmlns:xlink="http://www.w3.org/1999/xlink" width="1080" zoomAndPan="magnify" viewBox="0 0 810 809.999993" height="1080" preserveAspectRatio="xMidYMid meet" version="1.0"><defs><clipPath id="33940114a3"><path d="M 80.265625 157.585938 L 805.753906 157.585938 L 805.753906 608.128906 L 80.265625 608.128906 Z M 80.265625 157.585938 " clip-rule="nonzero"/></clipPath><clipPath id="f3bce48459"><path d="M 40.863281 112.28125 L 766.351562 112.28125 L 766.351562 562.820312 L 40.863281 562.820312 Z M 40.863281 112.28125 " clip-rule="nonzero"/></clipPath><clipPath id="6b26902818"><path d="M 7.761719 81 L 733.25 81 L 733.25 531.542969 L 7.761719 531.542969 Z M 7.761719 81 " clip-rule="nonzero"/></clipPath></defs><g clip-path="url(#33940114a3)"><path fill="#5ce1e6" d="M 766.660156 608.128906 L 119.359375 608.128906 C 97.820312 608.128906 80.269531 590.566406 80.269531 569.015625 L 80.269531 196.699219 C 80.269531 175.148438 97.820312 157.585938 119.359375 157.585938 L 766.660156 157.585938 C 788.203125 157.585938 805.753906 175.148438 805.753906 196.699219 L 805.753906 569.015625 C 805.753906 590.566406 788.203125 608.128906 766.660156 608.128906 " fill-opacity="1" fill-rule="nonzero"/></g><g clip-path="url(#f3bce48459)"><path fill="#8c52ff" d="M 727.257812 562.820312 L 79.957031 562.820312 C 58.414062 562.820312 40.863281 545.261719 40.863281 523.707031 L 40.863281 151.394531 C 40.863281 129.839844 58.414062 112.28125 79.957031 112.28125 L 727.257812 112.28125 C 748.796875 112.28125 766.347656 129.839844 766.347656 151.394531 L 766.347656 523.707031 C 766.347656 545.261719 748.796875 562.820312 727.257812 562.820312 " fill-opacity="1" fill-rule="nonzero"/></g><g clip-path="url(#6b26902818)"><path fill="#ffffff" d="M 694.15625 531.542969 L 46.855469 531.542969 C 25.316406 531.542969 7.765625 513.980469 7.765625 492.429688 L 7.765625 120.113281 C 7.765625 98.5625 25.316406 81 46.855469 81 L 694.15625 81 C 715.695312 81 733.25 98.5625 733.25 120.113281 L 733.25 492.429688 C 733.25 513.980469 715.695312 531.542969 694.15625 531.542969 " fill-opacity="1" fill-rule="nonzero"/></g></svg>