<?xml version="1.0" encoding="UTF-8"?>
<svg width="1200pt" height="1200pt" version="1.1" viewBox="0 0 1200 1200" xmlns="http://www.w3.org/2000/svg">
 <g fill="#fff">
  <path d="m925.5 600c0 179.77-145.73 325.5-325.5 325.5s-325.5-145.73-325.5-325.5 145.73-325.5 325.5-325.5 325.5 145.73 325.5 325.5"/>
  <path d="m238.5 286.27c6.6016 6.6016 15.262 9.9023 23.887 9.9023s17.25-3.3008 23.852-9.8633c13.199-13.199 13.199-34.539 0-47.738l-33.602-33.637c-13.199-13.199-34.539-13.164-47.738 0-13.199 13.199-13.199 34.539 0 47.738z"/>
  <path d="m947.36 204.94-33.602 33.637c-13.164 13.199-13.164 34.539 0 47.738 6.6016 6.5625 15.227 9.8633 23.852 9.8633s17.289-3.3008 23.887-9.8984l33.602-33.637c13.164-13.199 13.164-34.539 0-47.738-13.203-13.129-34.578-13.164-47.738 0.035156z"/>
  <path d="m1125 566.29h-47.551c-18.637 0-33.75 15.113-33.75 33.75 0 18.637 15.113 33.75 33.75 33.75h47.551c18.637 0 33.75-15.113 33.75-33.75 0-18.641-15.113-33.75-33.75-33.75z"/>
  <path d="m122.55 566.29h-47.551c-18.637 0-33.75 15.113-33.75 33.75 0 18.637 15.113 33.75 33.75 33.75h47.551c18.637 0 33.75-15.113 33.75-33.75 0-18.641-15.113-33.75-33.75-33.75z"/>
  <path d="m600 156.34c18.637 0 33.75-15.113 33.75-33.75v-47.547c0-18.637-15.113-33.75-33.75-33.75s-33.75 15.113-33.75 33.75v47.551c0 18.637 15.113 33.746 33.75 33.746z"/>
  <path d="m238.5 913.73-33.602 33.637c-13.164 13.199-13.164 34.539 0 47.738 6.6016 6.5625 15.227 9.8633 23.852 9.8633s17.289-3.3008 23.887-9.8984l33.602-33.637c13.164-13.199 13.164-34.539 0-47.738-13.164-13.129-34.539-13.168-47.738 0.035156z"/>
  <path d="m961.5 913.73c-13.199-13.199-34.539-13.164-47.738 0-13.199 13.199-13.199 34.539 0 47.738l33.602 33.637c6.6016 6.6016 15.227 9.8984 23.887 9.8984 8.6641 0 17.25-3.3008 23.852-9.8633 13.199-13.199 13.199-34.539 0-47.738z"/>
  <path d="m600 1043.7c-18.637 0-33.75 15.113-33.75 33.75v47.551c0 18.637 15.113 33.75 33.75 33.75s33.75-15.113 33.75-33.75v-47.551c0-18.641-15.113-33.75-33.75-33.75z"/>
 </g>
</svg>
